<?xml version="1.0" encoding="UTF-8"?>
<svg xmlns="http://www.w3.org/2000/svg" xmlns:xlink="http://www.w3.org/1999/xlink" version="1.1" id="Capa_1" x="0px" y="0px" viewBox="0 0 512 512" style="enable-background:new 0 0 512 512;" xml:space="preserve" width="512" height="512">
<g>
	<path style="fill:none;stroke:#000000;stroke-width:15;stroke-linecap:round;stroke-linejoin:round;stroke-miterlimit:10;" d="&#10;&#9;&#9;M162.809,64.904c32.84-26.15,74.431-41.78,119.671-41.78c60.58,0,105.811,30.47,129.661,51.31"/>
	<path style="fill:none;stroke:#000000;stroke-width:15;stroke-linecap:round;stroke-linejoin:round;stroke-miterlimit:10;" d="&#10;&#9;&#9;M151.769,356.376c0.41,0.39,0.83,0.77,1.25,1.15c0,0.01,0,0.01,0,0.01c9.79,8.55,14.68,24.46,12.66,35.34l-4.7,25.32"/>
	<path style="fill:none;stroke:#000000;stroke-width:15;stroke-linecap:round;stroke-linejoin:round;stroke-miterlimit:10;" d="&#10;&#9;&#9;M96.209,263.196c-3.91-15.29-5.99-31.31-5.99-47.81c0-34.51,9.09-66.9,25.02-94.901"/>
	<path style="fill:none;stroke:#000000;stroke-width:15;stroke-linecap:round;stroke-linejoin:round;stroke-miterlimit:10;" d="&#10;&#9;&#9;M435.291,98.025c12.6,15.46,43.26,63.59,35.42,116.001c0,0-6.59,34.84,7.83,51.5c0,0,42.51,44.95,18.73,56.22l-9.91,4.96&#10;&#9;&#9;c-5.13,2.57-7.74,8.41-6.22,13.94l3.21,11.76c0,0,1.03,16.4-14.61,17.27c0,0,16.27,15.27-3.13,24.65c0,0-7.51,5.63-3.13,12.52&#10;&#9;&#9;c0,0,19.51,29.34-15.02,40.95c0,0-24.95,4.05-48.72-4.84l-10.9-3.38c-11.61-3.6-23.38,5.08-23.38,17.23v40.5H146.299l8.72-46.97"/>
	<g>
		<path style="fill:none;stroke:#000000;stroke-width:15;stroke-linecap:round;stroke-linejoin:round;stroke-miterlimit:10;" d="&#10;&#9;&#9;&#9;M204.395,173.187c0-3.937,0.287-7.808,0.84-11.592l-23.947-16.17c2.397-8.871,5.916-17.282,10.394-25.071l28.365,5.499&#10;&#9;&#9;&#9;c4.634-6.228,10.16-11.754,16.388-16.388L230.936,81.1c7.789-4.478,16.2-7.997,25.071-10.394l16.17,23.947&#10;&#9;&#9;&#9;c3.784-0.554,7.654-0.84,11.592-0.84s7.808,0.287,11.592,0.84l16.17-23.947c8.871,2.397,17.282,5.916,25.071,10.394l-5.499,28.365&#10;&#9;&#9;&#9;c6.228,4.634,11.754,10.16,16.388,16.388l28.365-5.499c4.478,7.789,7.997,16.2,10.394,25.071l-23.947,16.17&#10;&#9;&#9;&#9;c0.554,3.784,0.84,7.654,0.84,11.592c0,3.937-0.287,7.808-0.84,11.592l23.947,16.17c-2.397,8.871-5.916,17.282-10.394,25.071&#10;&#9;&#9;&#9;l-28.365-5.499c-4.634,6.228-10.16,11.754-16.388,16.388l5.499,28.365c-7.789,4.478-16.2,7.997-25.071,10.394l-16.17-23.947&#10;&#9;&#9;&#9;c-3.784,0.554-7.654,0.84-11.592,0.84s-7.808-0.287-11.592-0.84l-16.17,23.947c-8.871-2.397-17.282-5.916-25.071-10.394&#10;&#9;&#9;&#9;l5.499-28.365c-6.228-4.634-11.754-10.16-16.388-16.388l-28.365,5.499c-4.478-7.789-7.997-16.2-10.394-25.071l23.947-16.17&#10;&#9;&#9;&#9;C204.682,180.995,204.395,177.124,204.395,173.187z"/>
		<path style="fill:none;stroke:#000000;stroke-width:15;stroke-linecap:round;stroke-linejoin:round;stroke-miterlimit:10;" d="&#10;&#9;&#9;&#9;M320.635,158.464c-5.847-14.629-20.15-24.965-36.867-24.965c-21.919,0-39.687,17.768-39.687,39.687s17.768,39.687,39.687,39.687&#10;&#9;&#9;&#9;c15.449,0,28.836-8.827,35.393-21.714"/>
	</g>
	<g>
		<path style="fill:none;stroke:#000000;stroke-width:15;stroke-linecap:round;stroke-linejoin:round;stroke-miterlimit:10;" d="&#10;&#9;&#9;&#9;M152.812,14.692H17.5c-5.523,0-10,4.477-10,10V97.88c0,5.523,4.477,10,10,10h86.48l27.77,31.062V107.88h21.062&#10;&#9;&#9;&#9;c5.523,0,10-4.477,10-10V24.693C162.812,19.17,158.335,14.692,152.812,14.692z"/>
		
			<line style="fill:none;stroke:#000000;stroke-width:15;stroke-linecap:round;stroke-linejoin:round;stroke-miterlimit:10;" x1="38.562" y1="45.755" x2="56.391" y2="45.755"/>
		
			<line style="fill:none;stroke:#000000;stroke-width:15;stroke-linecap:round;stroke-linejoin:round;stroke-miterlimit:10;" x1="85.156" y1="45.755" x2="131.75" y2="45.755"/>
		
			<line style="fill:none;stroke:#000000;stroke-width:15;stroke-linecap:round;stroke-linejoin:round;stroke-miterlimit:10;" x1="38.562" y1="76.817" x2="77.391" y2="76.817"/>
		
			<line style="fill:none;stroke:#000000;stroke-width:15;stroke-linecap:round;stroke-linejoin:round;stroke-miterlimit:10;" x1="108.453" y1="76.817" x2="131.75" y2="76.817"/>
	</g>
	<path style="fill:none;stroke:#000000;stroke-width:15;stroke-linecap:round;stroke-linejoin:round;stroke-miterlimit:10;" d="&#10;&#9;&#9;M183.875,356.38H48.563c-5.523,0-10-4.477-10-10v-73.187c0-5.523,4.477-10,10-10h86.48l27.77-31.062v31.062h21.062&#10;&#9;&#9;c5.523,0,10,4.477,10,10v73.187C193.875,351.903,189.398,356.38,183.875,356.38z"/>
	
		<line style="fill:none;stroke:#000000;stroke-width:15;stroke-linecap:round;stroke-linejoin:round;stroke-miterlimit:10;" x1="69.625" y1="325.317" x2="94.07" y2="325.317"/>
	
		<line style="fill:none;stroke:#000000;stroke-width:15;stroke-linecap:round;stroke-linejoin:round;stroke-miterlimit:10;" x1="122.836" y1="325.317" x2="162.812" y2="325.317"/>
	
		<line style="fill:none;stroke:#000000;stroke-width:15;stroke-linecap:round;stroke-linejoin:round;stroke-miterlimit:10;" x1="69.625" y1="294.255" x2="113.921" y2="294.255"/>
	
		<line style="fill:none;stroke:#000000;stroke-width:15;stroke-linecap:round;stroke-linejoin:round;stroke-miterlimit:10;" x1="144.984" y1="294.255" x2="162.812" y2="294.255"/>
</g>















</svg>
