<svg xmlns="http://www.w3.org/2000/svg" xmlns:xlink="http://www.w3.org/1999/xlink" width="40" zoomAndPan="magnify" viewBox="0 0 30 30.000001" height="40" preserveAspectRatio="xMidYMid meet" version="1.0"><path fill="#ff725c" d="M 9.957031 17.375 L 7.433594 25.859375 L 10.84375 23.316406 L 12.308594 27.308594 L 14.761719 19.050781 Z M 9.957031 17.375 " fill-opacity="1" fill-rule="nonzero"/><path fill="#ff725c" d="M 19.96875 17.375 L 22.492188 25.859375 L 19.082031 23.316406 L 17.617188 27.308594 L 15.160156 19.050781 Z M 19.96875 17.375 " fill-opacity="1" fill-rule="nonzero"/><path fill="#ffcc5b" d="M 23.398438 11.96875 C 23.398438 12.824219 22.234375 13.484375 21.984375 14.253906 C 21.726562 15.050781 22.269531 16.265625 21.785156 16.929688 C 21.296875 17.601562 19.972656 17.457031 19.300781 17.945312 C 18.636719 18.425781 18.367188 19.734375 17.570312 19.996094 C 16.800781 20.246094 15.816406 19.351562 14.960938 19.351562 C 14.109375 19.351562 13.125 20.246094 12.355469 19.996094 C 11.558594 19.734375 11.285156 18.425781 10.621094 17.945312 C 9.953125 17.457031 8.625 17.601562 8.136719 16.929688 C 7.652344 16.265625 8.199219 15.050781 7.9375 14.253906 C 7.6875 13.484375 6.527344 12.824219 6.527344 11.96875 C 6.527344 11.117188 7.6875 10.457031 7.9375 9.6875 C 8.199219 8.890625 7.652344 7.675781 8.136719 7.011719 C 8.625 6.339844 9.953125 6.484375 10.621094 5.996094 C 11.285156 5.511719 11.558594 4.203125 12.355469 3.945312 C 13.125 3.695312 14.109375 4.585938 14.960938 4.585938 C 15.816406 4.585938 16.800781 3.695312 17.570312 3.945312 C 18.367188 4.203125 18.636719 5.511719 19.300781 5.996094 C 19.972656 6.484375 21.300781 6.339844 21.785156 7.011719 C 22.269531 7.675781 21.726562 8.890625 21.984375 9.6875 C 22.234375 10.457031 23.398438 11.117188 23.398438 11.96875 Z M 23.398438 11.96875 " fill-opacity="1" fill-rule="nonzero"/><path fill="#ec9922" d="M 19.679688 11.96875 C 19.679688 9.363281 17.566406 7.253906 14.960938 7.253906 C 12.355469 7.253906 10.242188 9.363281 10.242188 11.96875 C 10.242188 14.578125 12.355469 16.6875 14.960938 16.6875 C 17.566406 16.6875 19.679688 14.578125 19.679688 11.96875 Z M 19.679688 11.96875 " fill-opacity="1" fill-rule="nonzero"/><path fill="#ffcc5b" d="M 14.960938 9.25 L 15.734375 11.011719 L 17.648438 11.203125 L 16.214844 12.480469 L 16.621094 14.359375 L 14.960938 13.390625 L 13.300781 14.359375 L 13.710938 12.480469 L 12.277344 11.203125 L 14.1875 11.011719 Z M 14.960938 9.25 " fill-opacity="1" fill-rule="nonzero"/></svg>