<svg id="Layer_1" enable-background="new 0 0 2048 2048" height="512" viewBox="0 0 2048 2048" width="512" xmlns="http://www.w3.org/2000/svg"><g><g><g><path d="m695.45 1140.15-165.53 556.75 223.72-166.98 96.14 262.08 161.15-541.98z" fill="#ff725c"/></g><g><path d="m1352.55 1140.15 165.53 556.75-223.72-166.98-96.14 262.08-161.13-541.98z" fill="#ff725c"/></g></g><path d="m1577.56 785.5c0 55.99-76.27 99.24-92.68 149.76-17 52.36 18.69 132.07-13.03 175.65-32.04 44.02-119.09 34.54-163.11 66.58-43.58 31.72-61.29 117.61-113.65 134.61-50.52 16.4-115.11-42.14-171.1-42.14s-120.58 58.54-171.1 42.14c-52.36-17-70.07-102.89-113.66-134.61-44.02-32.04-131.07-22.56-163.11-66.58-31.72-43.58 3.98-123.29-13.02-175.65-16.4-50.52-92.68-93.77-92.68-149.76s76.27-99.24 92.68-149.76c17-52.36-18.69-132.07 13.03-175.65 32.04-44.02 119.09-34.54 163.11-66.58 43.58-31.72 61.29-117.61 113.65-134.61 50.52-16.4 115.11 42.14 171.1 42.14s120.58-58.54 171.1-42.14c52.36 17 70.07 102.89 113.66 134.61 44.02 32.04 131.07 22.56 163.11 66.58 31.72 43.58-3.98 123.29 13.02 175.65 16.4 50.52 92.68 93.77 92.68 149.76z" fill="#ffcc5b"/><circle cx="1024" cy="785.5" fill="#ec9922" r="309.62"/><path d="m1024 607.08 50.77 115.45 125.48 12.6-94.11 83.96 26.79 123.24-108.93-63.56-108.93 63.56 26.79-123.24-94.11-83.96 125.48-12.6z" fill="#ffcc5b"/></g></svg>