<svg xmlns="http://www.w3.org/2000/svg" xmlns:xlink="http://www.w3.org/1999/xlink" width="40" zoomAndPan="magnify" viewBox="0 0 30 30.000001" height="40" preserveAspectRatio="xMidYMid meet" version="1.0"><defs><clipPath id="282ccf4228"><path d="M 5.492188 5.007812 L 24.363281 5.007812 L 24.363281 23.878906 L 5.492188 23.878906 Z M 5.492188 5.007812 " clip-rule="nonzero"/></clipPath><clipPath id="3298d66789"><path d="M 14 5.007812 L 24.363281 5.007812 L 24.363281 23.878906 L 14 23.878906 Z M 14 5.007812 " clip-rule="nonzero"/></clipPath><clipPath id="25fb6d2b73"><path d="M 18 5.007812 L 24.363281 5.007812 L 24.363281 12 L 18 12 Z M 18 5.007812 " clip-rule="nonzero"/></clipPath><clipPath id="45c7b348e8"><path d="M 18 7 L 24.363281 7 L 24.363281 12 L 18 12 Z M 18 7 " clip-rule="nonzero"/></clipPath></defs><g clip-path="url(#282ccf4228)"><path fill="#fe0050" d="M 14.925781 23.878906 C 9.726562 23.878906 5.492188 19.644531 5.492188 14.445312 C 5.492188 9.242188 9.726562 5.007812 14.925781 5.007812 C 20.128906 5.007812 24.363281 9.242188 24.363281 14.445312 C 24.363281 19.644531 20.128906 23.878906 14.925781 23.878906 Z M 14.925781 23.878906 " fill-opacity="1" fill-rule="nonzero"/></g><g clip-path="url(#3298d66789)"><path fill="#e10555" d="M 14.925781 5.007812 L 14.925781 23.878906 C 20.128906 23.878906 24.363281 19.644531 24.363281 14.445312 C 24.363281 9.242188 20.128906 5.007812 14.925781 5.007812 Z M 14.925781 5.007812 " fill-opacity="1" fill-rule="nonzero"/></g><path fill="#d9e7f3" d="M 14.925781 20.746094 C 11.453125 20.746094 8.625 17.917969 8.625 14.445312 C 8.625 10.96875 11.453125 8.140625 14.925781 8.140625 C 18.402344 8.140625 21.230469 10.96875 21.230469 14.445312 C 21.230469 17.917969 18.402344 20.746094 14.925781 20.746094 Z M 14.925781 20.746094 " fill-opacity="1" fill-rule="nonzero"/><path fill="#c8d4df" d="M 14.925781 8.140625 L 14.925781 20.746094 C 18.402344 20.746094 21.230469 17.917969 21.230469 14.445312 C 21.230469 10.96875 18.402344 8.140625 14.925781 8.140625 Z M 14.925781 8.140625 " fill-opacity="1" fill-rule="nonzero"/><path fill="#fe0050" d="M 14.925781 17.429688 C 13.28125 17.429688 11.941406 16.089844 11.941406 14.445312 C 11.941406 12.796875 13.28125 11.457031 14.925781 11.457031 C 16.574219 11.457031 17.914062 12.796875 17.914062 14.445312 C 17.914062 16.089844 16.574219 17.429688 14.925781 17.429688 Z M 14.925781 17.429688 " fill-opacity="1" fill-rule="nonzero"/><path fill="#e10555" d="M 14.925781 11.457031 L 14.925781 17.429688 C 16.574219 17.429688 17.914062 16.089844 17.914062 14.445312 C 17.914062 12.796875 16.574219 11.457031 14.925781 11.457031 Z M 14.925781 11.457031 " fill-opacity="1" fill-rule="nonzero"/><path fill="#2d2d55" d="M 14.925781 14.996094 C 14.785156 14.996094 14.644531 14.941406 14.535156 14.835938 C 14.320312 14.617188 14.320312 14.269531 14.535156 14.050781 L 18.601562 9.988281 C 18.816406 9.769531 19.167969 9.769531 19.382812 9.988281 C 19.601562 10.203125 19.601562 10.554688 19.382812 10.769531 L 15.316406 14.835938 C 15.210938 14.941406 15.070312 14.996094 14.925781 14.996094 Z M 14.925781 14.996094 " fill-opacity="1" fill-rule="nonzero"/><path fill="#0a0a48" d="M 19.382812 9.988281 L 14.535156 14.835938 C 14.644531 14.941406 14.785156 14.996094 14.925781 14.996094 C 15.070312 14.996094 15.210938 14.941406 15.316406 14.835938 L 19.382812 10.769531 C 19.601562 10.554688 19.601562 10.203125 19.382812 9.988281 Z M 19.382812 9.988281 " fill-opacity="1" fill-rule="nonzero"/><g clip-path="url(#25fb6d2b73)"><path fill="#ffc300" d="M 21.15625 11.113281 C 21.140625 11.113281 21.125 11.113281 21.109375 11.109375 L 18.945312 10.929688 C 18.679688 10.90625 18.464844 10.691406 18.441406 10.425781 L 18.257812 8.261719 C 18.246094 8.097656 18.304688 7.9375 18.417969 7.824219 L 20.765625 5.476562 C 20.917969 5.324219 21.144531 5.277344 21.347656 5.351562 C 21.546875 5.425781 21.6875 5.609375 21.707031 5.824219 L 21.851562 7.519531 L 23.546875 7.664062 C 23.761719 7.683594 23.945312 7.824219 24.019531 8.023438 C 24.09375 8.226562 24.042969 8.453125 23.894531 8.605469 L 21.546875 10.949219 C 21.441406 11.054688 21.300781 11.113281 21.15625 11.113281 Z M 21.15625 11.113281 " fill-opacity="1" fill-rule="nonzero"/></g><g clip-path="url(#45c7b348e8)"><path fill="#fab400" d="M 23.546875 7.664062 L 21.851562 7.519531 L 18.601562 10.769531 C 18.691406 10.859375 18.8125 10.917969 18.945312 10.929688 L 21.109375 11.109375 C 21.125 11.113281 21.140625 11.113281 21.15625 11.113281 C 21.300781 11.113281 21.441406 11.054688 21.546875 10.949219 L 23.894531 8.605469 C 24.042969 8.453125 24.09375 8.226562 24.019531 8.023438 C 23.945312 7.824219 23.761719 7.683594 23.546875 7.664062 Z M 23.546875 7.664062 " fill-opacity="1" fill-rule="nonzero"/></g></svg>